<?xml version="1.0" encoding="UTF-8"?>
<!DOCTYPE svg PUBLIC "-//W3C//DTD SVG 1.0//EN" "http://www.w3.org/TR/2001/REC-SVG-20010904/DTD/svg10.dtd">
<!-- Creator: CorelDRAW Home & Student X7 -->
<svg xmlns="http://www.w3.org/2000/svg" xml:space="preserve" width="747.5mm" height="780mm" version="1.0" style="shape-rendering:geometricPrecision; text-rendering:geometricPrecision; image-rendering:optimizeQuality; fill-rule:evenodd; clip-rule:evenodd"
viewBox="0 0 74750 78000"
 xmlns:xlink="http://www.w3.org/1999/xlink">
 <defs>
  <style type="text/css">
   <![CDATA[
    .fil0 {fill:#010000}
    .fil1 {fill:#F9A500}
   ]]>
  </style>
 </defs>
 <g id="Logo">
  <metadata id="CorelCorpID_0Corel-Layer"/>
  <g id="_336670560">
   <path class="fil0" d="M11839 60589l0 -26928c0,-1712 2372,-2561 3641,-3324 802,-481 1426,-804 2207,-1275 592,-356 1652,-1038 2277,-1205 0,4875 12,9751 0,14625 -3,1210 -90,2339 248,3235 873,2315 3705,3280 6295,4848 1541,933 3045,1719 4588,2608 4562,2626 3626,783 4954,9902l781 4791c192,1203 -190,774 545,1313l2039 -12587c178,-1068 -196,-506 460,-1165 593,-596 11012,-6278 12785,-7411 2184,-1394 2136,-3120 2127,-5301 -19,-4874 0,-9752 0,-14626 1457,771 2766,1558 4178,2322 1527,825 3482,1684 3482,3250l0 26928c0,1816 -3182,2991 -5558,4424l-17665 10193c-2739,1629 -4281,18 -8857,-2733l-16053 -9250c-1058,-574 -2474,-1161 -2474,-2634zm15043 -60589l1227 0c1131,221 2362,1046 4783,2393 5433,3023 3484,3138 9114,-83 3192,-1826 3058,-2310 6048,-2310 1327,0 15771,8663 17776,9849 3954,2339 8920,4188 8920,7562l0 26928c0,3739 -6193,5665 -10214,8357 0,10683 1121,9716 -5816,13685 -1406,805 -2748,1540 -4155,2345l-12361 7139c-3012,1806 -3052,2135 -5758,2135 -1240,0 -14634,-8105 -16874,-9357 -1520,-850 -2849,-1662 -4262,-2471 -1769,-1012 -4683,-2207 -5376,-4373 -317,-991 -184,-8183 -184,-9567 -760,-177 -2136,-1083 -2885,-1526 -2913,-1723 -6865,-3095 -6865,-6367l0 -26928c0,-3038 3201,-4234 5560,-5583l17502 -10123c1787,-977 2891,-1532 3820,-1705zm-5006 40125c1004,226 6427,3535 7744,4306 984,577 7246,4261 7761,4266 588,6 6684,-3608 7792,-4221l7688 -4248c136,6097 310,5289 -5967,8757 -1190,658 -8909,5319 -9519,5319 -615,0 -8319,-4650 -9520,-5318 -6586,-3669 -5979,-2609 -5979,-8861zm0 -11821c1683,380 14569,8505 15516,8531 889,24 13948,-8052 15482,-8479l0 5543c-2445,1411 -5292,2749 -7853,4161 -8645,4766 -6565,4265 -11785,1373 -2066,-1144 -10982,-5552 -11360,-6469l0 -4660zm5053 -4393c391,-535 1525,-1082 2241,-1473 1408,-768 6576,-4099 7741,-4099 1973,0 3385,1304 6133,2920l5242 2884c-466,635 -1633,1056 -2420,1527l-8214 4126c-173,-12 -10203,-5176 -10723,-5885zm-4876 -2322c0,-2675 -431,-4808 880,-5852l13059 -7605c1693,-1017 1736,-585 4389,933 718,411 1370,860 2181,1302 837,456 1451,804 2230,1252l6474 3739c1965,1248 1430,2233 1430,6231 0,683 -398,679 -916,941l-1173 684c-955,-640 -2001,-1177 -3089,-1785l-6330 -3653c-4859,-2875 -5449,-1528 -11926,2200 -1132,652 -2386,1315 -3540,2038 -2119,1327 -1383,108 -3669,-425zm25072 -19500c1870,0 8315,4126 10259,5295 1089,655 2180,1297 3217,1890l9586 5503c1058,574 2474,1161 2474,2634l0 26928c0,1854 -3652,3277 -5848,4599 -592,355 -1652,1038 -2277,1205l-21 -16926c-346,-3016 -3890,-4185 -6846,-5922 -915,-538 -1862,-1289 -2883,-1527 0,-4817 973,-9202 -1466,-11535 -535,-512 -2034,-1216 -2759,-1651l-11097 -6314 1697 -1090c697,-386 1209,-678 1919,-1098 825,-489 3128,-1991 4045,-1991zm-27161 23215c-3316,2220 -9340,4515 -10084,7326 -508,1919 -130,14261 -130,17281 -1457,-771 -2769,-1493 -4165,-2335 -1176,-709 -3496,-1528 -3496,-3237l0 -26928c0,-1742 3485,-3283 5572,-4411l6488 -3726c1707,-976 11748,-7185 13012,-7185 1813,0 5482,2494 7190,3488l935 691c-732,195 -1975,1051 -2714,1464l-10888 6291c-2732,2028 -1720,6990 -1720,11281z"/>
   <path class="fil1" d="M37375 54304c610,0 8329,-4661 9519,-5319 6277,-3468 6103,-2660 5967,-8757l-7688 4248c-1108,613 -7204,4227 -7792,4221 -515,-5 -6777,-3689 -7761,-4266 -1317,-771 -6740,-4080 -7744,-4306 0,6252 -607,5192 5979,8861 1201,668 8905,5318 9520,5318z"/>
   <path class="fil1" d="M21876 32964c378,917 9294,5325 11360,6469 5220,2892 3140,3393 11785,-1373 2561,-1412 5408,-2750 7853,-4161l0 -5543c-1534,427 -14593,8503 -15482,8479 -947,-26 -13833,-8151 -15516,-8531l0 4660z"/>
  </g>
 </g>
</svg>
